<svg xmlns="http://www.w3.org/2000/svg"><symbol id="linkin" viewBox="0 0 256 256"><path fill="#544741" d="M123.4 16.9a113.2 113.2 0 1 0 113.1 113.2A113.2 113.2 0 0 0 123.4 16.9zm-18.9 150.9H85.7v-56.6h18.8zm-9.4-65a10.5 10.5 0 1 1 10.4-10.4 10.4 10.4 0 0 1-10.4 10.4zm75.4 65h-18.8v-27c0-17.7-18.9-16.2-18.9 0v27H114v-56.6h18.8v10.3c8.2-15.2 37.7-16.3 37.7 14.6z"/></symbol><symbol id="instagram" viewBox="0 0 256 256"><path fill="#544741" d="M126.2 8.5c-66.3 0-120 52.7-120 117.8s53.7 117.8 120 117.8 120.1-52.7 120.1-117.8S192.5 8.5 126.2 8.5zm30 78.5h-13.5c-5.4 0-6.5 2.2-6.5 7.7v12h20l-2.1 19.6h-17.9V195h-30v-68.7h-20v-19.6h20V84c0-17.4 9.3-26.4 30.3-26.4h19.7z"/></symbol><symbol id="instgtsm" viewBox="0 0 256 256"><path fill="#544741" d="M156.5 71.6c-7.5-.3-9.7-.4-28.7-.4s-21.1.1-28.6.4c-19.2.9-28.2 10-29.1 29.1-.3 7.5-.4 9.7-.4 28.6s.1 21.2.4 28.7c.9 19 9.8 28.2 29.1 29 7.5.4 9.7.5 28.6.5s21.2-.1 28.7-.5c19.2-.8 28.2-10 29.1-29 .3-7.5.4-9.7.4-28.7s-.1-21.1-.4-28.6c-.9-19.1-9.9-28.2-29.1-29.1zm-28.7 94.1a36.4 36.4 0 1 1 36.4-36.4 36.4 36.4 0 0 1-36.4 36.4zm37.9-65.7a8.5 8.5 0 1 1 8.5-8.5 8.5 8.5 0 0 1-8.5 8.5zm-14.2 29.3a23.7 23.7 0 1 1-23.7-23.6 23.7 23.7 0 0 1 23.7 23.6zM127.8 7.8a121.6 121.6 0 1 0 121.6 121.5A121.5 121.5 0 0 0 127.8 7.8zm70.5 150.8c-1.2 25.7-15.5 40-41.2 41.2-7.6.3-10 .4-29.3.4s-21.6-.1-29.2-.4c-25.8-1.2-40-15.5-41.2-41.2-.4-7.6-.5-10-.5-29.3s.1-21.6.5-29.2C58.6 74.3 72.9 60 98.6 58.9c7.6-.4 10-.5 29.2-.5s21.7.1 29.3.5c25.8 1.1 40.1 15.5 41.2 41.2.4 7.6.4 10 .4 29.2s0 21.7-.4 29.3z"/></symbol><symbol id="search" viewBox="0 0 256 256"><path fill="#544841" d="M100.35 143.076l15.061 15.061-72.613 72.613-15.061-15.061zM152.2 29.2a66.1 66.1 0 1 0 66.1 66 66 66 0 0 0-66.1-66zm.7 118.2a52.2 52.2 0 1 1 52.2-52.2 52.2 52.2 0 0 1-52.2 52.2z"/></symbol><symbol id="shop-chart" viewBox="0 0 256 256"><path fill="#544741" d="M215.1 175.6v14.8H91.7L39.3 71.6l-33.5-.3v-14h44.5l50.9 119.2 113.9-.9z"/><circle cx="126.7" cy="215.5" r="18.1" fill="#544741"/><circle cx="183.2" cy="215.5" r="18.1" fill="#544741"/><path fill="#544741" d="M207.1 163.2l-100.2 1.5L77 79.2l157.5-2.3-27.4 86.3z"/></symbol><symbol id="home" viewBox="0 0 256 256"><path fill="none" stroke="#544741" stroke-miterlimit="10" stroke-width="16.57" d="M194.4 115.2v100.4H66.3V112.2"/><path fill="#544741" d="M115 161h35.2v52.39H115z"/><path fill="none" stroke="#544741" stroke-miterlimit="10" stroke-width="25.34" d="M41.7 132.3l92.7-75.9 86.3 75.1"/><path fill="#544741" d="M169.9 42.4h20.6v49.05h-20.6z"/></symbol><symbol id="hamburger-nav" viewBox="0 0 256 256"><path fill="#544841" d="M45.1 54.8H207v27.03H45.1zm0 61.9H207v27.03H45.1zm0 61.8H207v27.03H45.1z"/></symbol><symbol id="dribble" viewBox="0 0 256 256"><path fill="#544741" d="M117.8 113c-13.4 3.9-29.4 6-48 6.1a55.3 55.3 0 0 1 28.5-35.9 249.5 249.5 0 0 1 19.5 29.8zm9.2 18.3c-1.2-2.7-2.4-5.3-3.7-7.9-15.4 4.8-33.8 7.2-55 7.3v1.4a54.6 54.6 0 0 0 12.7 35c11.9-18 27.3-30 46-35.8zm-37.6 44a54.4 54.4 0 0 0 53.3 7.9 219.6 219.6 0 0 0-11.3-41.3c-17.3 5.2-31.2 16.3-42 33.4zm67-86.6a54.4 54.4 0 0 0-46.8-9.7 278.3 278.3 0 0 1 19.3 30.1c11.7-5 20.8-11.8 27.5-20.4zm80.3 43.4A113.7 113.7 0 1 1 123 18.3a113.7 113.7 0 0 1 113.7 113.8zm-47.3 0a66.4 66.4 0 1 0-66.4 66.3 66.4 66.4 0 0 0 66.4-66.3zm-55.2-12.8l4.2 9.3c11.9-2.1 25-2 39.3.4a54.4 54.4 0 0 0-12.9-32.3c-7.6 9.6-17.9 17.1-30.6 22.6zm8.6 20.2a229 229 0 0 1 10.6 38.1 54.5 54.5 0 0 0 23.7-37c-12.5-2.2-23.9-2.6-34.3-1.1z"/></symbol></svg>